 <svg  version="1.0" xmlns="http://www.w3.org/2000/svg"  width="149.000000pt" height="300.000000pt" viewBox="0 0 149.000000 300.000000"  preserveAspectRatio="xMidYMid meet">  <g transform="translate(0.000000,300.000000) scale(0.100000,-0.100000)" fill="#270552" stroke="none"> <path d="M755 2957 c-16 -7 -46 -21 -65 -31 -33 -18 -34 -18 -20 -1 14 17 13 17 -5 8 -21 -11 -115 -24 -115 -16 0 2 5 13 10 24 6 10 8 19 5 19 -21 0 -80 -36 -135 -83 -35 -31 -68 -53 -72 -51 -4 3 -25 -12 -48 -32 -22 -20 -40 -33 -40 -28 0 4 -5 3 -12 -4 -7 -7 -21 -12 -31 -12 -10 0 -21 -9 -24 -20 -4 -14 -14 -20 -34 -20 -31 0 -35 -10 -19 -40 8 -16 6 -22 -12 -34 -13 -8 -35 -18 -50 -21 -33 -8 -36 -21 -8 -28 28 -7 25 -21 -8 -38 -54 -28 -55 -45 -2 -59 22 -6 40 -14 40 -18 0 -5 -11 -23 -25 -42 -16 -22 -25 -47 -25 -70 0 -21 -5 -51 -11 -67 -12 -37 13 -154 59 -273 l29 -75 -28 -12 c-36 -15 -46 -51 -25 -91 9 -17 16 -39 17 -49 1 -10 6 -1 13 19 14 47 22 54 41 38 11 -9 14 -22 10 -37 -8 -32 10 -94 35 -121 24 -25 40 -112 21 -112 -7 0 -9 -4 -6 -10 9 -15 46 -12 66 6 22 20 35 13 44 -23 27 -107 118 -233 215 -298 38 -26 70 -50 70 -54 0 -17 -29 -44 -75 -69 -44 -24 -55 -37 -98 -121 -81 -155 -138 -330 -114 -349 7 -5 46 -12 87 -16 41 -4 79 -11 84 -16 17 -17 -22 -22 -87 -11 -80 14 -77 14 -77 -4 0 -12 16 -15 84 -15 93 0 113 -11 102 -55 -6 -23 -4 -25 28 -25 55 0 58 -10 52 -192 -2 -90 -8 -183 -11 -209 -6 -41 -4 -48 23 -77 27 -29 36 -32 89 -32 80 0 133 16 133 40 0 30 15 32 72 5 76 -35 207 -32 231 5 14 23 -10 99 -42 131 -24 23 -29 40 -36 106 -5 43 -8 110 -7 148 3 78 14 95 65 95 l30 0 -7 59 c-7 65 -10 62 61 76 18 4 35 10 38 15 3 5 -9 5 -27 -1 -18 -5 -43 -9 -55 -9 -43 0 -23 18 42 40 36 12 65 27 65 34 0 26 -77 224 -114 293 -31 58 -48 79 -87 103 -27 16 -49 33 -49 38 0 4 8 18 17 31 16 23 15 24 -3 19 -113 -33 -110 -32 -191 -13 -92 21 -163 64 -192 115 -11 20 -54 70 -96 110 -41 41 -75 80 -75 86 0 7 -5 14 -12 16 -6 2 -11 19 -10 36 1 54 35 73 202 116 30 8 64 17 75 21 18 6 20 2 20 -51 0 -54 2 -60 31 -79 17 -12 57 -27 88 -35 54 -13 56 -13 79 11 13 13 38 32 55 41 18 9 32 21 32 26 0 14 -43 23 -54 12 -16 -16 -61 -11 -87 8 -35 27 -57 33 -63 16 -7 -19 -55 -18 -63 2 -3 8 -1 32 5 52 6 20 12 42 12 47 1 6 14 33 30 60 16 28 31 67 35 87 15 79 61 74 105 -10 16 -31 36 -68 44 -82 7 -14 19 -37 26 -52 16 -35 74 -58 145 -58 43 0 56 4 64 19 6 10 8 21 5 24 -3 3 4 8 16 12 63 20 117 105 135 212 3 23 13 47 21 54 19 15 18 63 -2 80 -18 15 -13 70 11 123 7 17 16 45 20 62 5 26 10 31 27 26 18 -4 20 -2 14 14 -4 10 -18 51 -31 91 -13 39 -31 83 -41 97 -10 17 -14 35 -10 51 4 15 0 37 -9 54 -17 34 -63 73 -76 65 -5 -3 -9 -1 -9 4 0 16 -133 100 -177 111 -23 7 -45 16 -48 21 -4 6 3 25 14 44 21 34 29 82 12 72 -5 -4 -11 0 -13 6 -3 9 -19 5 -55 -15 -28 -15 -60 -27 -71 -27 -11 0 -25 -7 -32 -15 -7 -8 -18 -15 -24 -15 -6 0 -5 4 3 9 11 7 11 9 0 14 -8 3 5 8 28 12 24 4 40 11 38 16 -3 4 -18 4 -34 -1 -23 -6 -29 -5 -25 5 7 18 -20 25 -58 14 -22 -6 -34 -6 -36 1 -5 13 -29 12 -67 -3z m330 -36 c-4 -3 -10 -6 -13 -6 -4 0 -13 -4 -19 -8 -19 -12 -113 -17 -113 -6 0 5 10 9 23 9 12 1 32 6 45 14 22 12 89 10 77 -3z m-355 -6 c-7 -8 -18 -15 -24 -15 -6 0 -2 7 8 15 25 19 32 19 16 0z m148 -2 c-10 -2 -26 -2 -35 0 -10 3 -2 5 17 5 19 0 27 -2 18 -5z m-38 -24 c-100 -19 -110 -20 -110 -10 0 11 36 18 105 18 l50 1 -45 -9z m167 -6 c-4 -3 -10 -3 -14 0 -3 4 0 7 7 7 7 0 10 -3 7 -7z m-472 -13 c-3 -5 -12 -10 -18 -10 -7 0 -6 4 3 10 19 12 23 12 15 0z m313 -19 c10 -6 4 -10 -18 -15 -40 -7 -65 5 -30 15 35 10 33 10 48 0z m87 -1 c13 -6 15 -9 5 -9 -8 0 -22 4 -30 9 -18 12 -2 12 25 0z m-178 -7 c-4 -3 -10 -3 -14 0 -3 4 0 7 7 7 7 0 10 -3 7 -7z m-81 -28 c-11 -8 -25 -15 -30 -15 -6 1 0 7 14 15 32 19 40 18 16 0z m237 -4 l39 -18 -29 -11 c-18 -7 -40 -8 -63 -3 -35 9 -35 9 13 10 33 1 46 5 41 12 -4 8 -26 10 -63 6 -52 -5 -54 -5 -31 8 33 19 47 18 93 -4z m77 5 c0 -2 -7 -7 -16 -10 -8 -3 -12 -2 -9 4 6 10 25 14 25 6z m-27 -73 c-7 -2 -21 -2 -30 0 -10 3 -4 5 12 5 17 0 24 -2 18 -5z m65 -10 c-10 -2 -26 -2 -35 0 -10 3 -2 5 17 5 19 0 27 -2 18 -5z m9 -40 c-4 -3 -10 -3 -14 0 -3 4 0 7 7 7 7 0 10 -3 7 -7z m-116 -34 c35 -12 75 -28 89 -36 27 -15 27 -16 -84 23 -61 21 -89 34 -74 34 2 0 34 -9 69 -21z m119 -74 c31 -9 37 -13 20 -14 -14 0 -45 9 -70 20 -46 20 -31 18 50 -6z m17 18 c-4 -3 -10 -3 -14 0 -3 4 0 7 7 7 7 0 10 -3 7 -7z m-57 -33 c22 -11 44 -20 51 -20 6 0 29 -16 50 -35 22 -19 35 -35 31 -35 -5 0 -19 11 -31 24 -12 13 -44 32 -69 41 -46 18 -94 45 -79 45 4 0 25 -9 47 -20z m-225 -20 c3 -5 4 -10 1 -10 -3 0 -8 5 -11 10 -3 6 -4 10 -1 10 3 0 8 -4 11 -10z m20 -30 c3 -5 4 -10 1 -10 -3 0 -8 5 -11 10 -3 6 -4 10 -1 10 3 0 8 -4 11 -10z m60 -10 c10 -11 16 -20 13 -20 -3 0 -13 9 -23 20 -10 11 -16 20 -13 20 3 0 13 -9 23 -20z m90 10 c3 -5 4 -10 1 -10 -3 0 -8 5 -11 10 -3 6 -4 10 -1 10 3 0 8 -4 11 -10z m90 -10 c10 -11 16 -20 13 -20 -3 0 -13 9 -23 20 -10 11 -16 20 -13 20 3 0 13 -9 23 -20z m-228 -27 c-4 -3 -7 0 -7 7 0 7 3 10 7 7 3 -4 3 -10 0 -14z m10 -30 c-4 -3 -7 0 -7 7 0 7 3 10 7 7 3 -4 3 -10 0 -14z m-246 -41 c-7 -17 -24 -41 -39 -54 l-26 -23 18 28 c10 16 15 31 12 34 -3 3 2 12 12 20 9 8 11 12 5 8 -16 -8 -17 7 -1 23 20 20 32 -3 19 -36z m125 25 c53 -28 99 -84 114 -140 l14 -52 7 35 6 35 2 -35 c1 -19 6 -42 11 -50 7 -11 8 -5 4 20 l-5 35 49 -52 c27 -29 51 -53 55 -53 3 0 -10 23 -29 51 -19 28 -34 56 -34 62 0 6 -3 7 -7 4 -4 -4 -13 7 -20 24 -17 41 -16 61 2 29 8 -14 14 -19 15 -12 0 8 23 -7 52 -33 28 -25 57 -44 64 -41 7 3 23 -8 34 -24 12 -17 26 -30 31 -30 6 0 3 10 -5 22 -9 12 -16 29 -16 38 0 9 3 11 8 4 7 -11 40 -27 57 -29 6 0 16 -4 24 -9 8 -5 16 -4 21 3 8 15 54 5 71 -15 6 -8 15 -12 19 -9 10 6 46 -35 55 -64 7 -22 5 -23 -27 -15 -46 11 -159 7 -171 -5 -6 -6 -19 -11 -30 -11 -10 0 -44 -12 -75 -26 -65 -30 -123 -33 -192 -10 -25 8 -71 18 -104 22 -38 4 -53 10 -45 15 20 13 -134 11 -168 -2 -45 -17 -113 -27 -113 -17 0 5 11 33 25 63 14 30 28 63 30 74 6 31 25 62 35 56 4 -3 14 1 22 8 7 7 25 20 41 30 15 10 43 42 63 71 39 59 53 63 110 33z m276 -62 c11 -21 10 -20 -37 35 l-30 35 28 -25 c16 -14 33 -34 39 -45z m-485 -12 c-4 -3 -7 0 -7 7 0 7 3 10 7 7 3 -4 3 -10 0 -14z m870 -250 c-4 -3 -10 -3 -14 0 -3 4 0 7 7 7 7 0 10 -3 7 -7z m-202 -22 c-3 -5 7 -11 22 -13 16 -2 29 -10 31 -19 4 -20 -93 -42 -120 -28 -25 14 -22 48 5 59 29 12 70 12 62 1z m130 -7 c10 -11 14 -26 11 -39 -4 -14 0 -28 9 -35 10 -8 15 -31 15 -68 0 -73 11 -59 21 26 l7 67 -2 -67 c-2 -57 -7 -74 -32 -110 -16 -24 -45 -51 -64 -60 -40 -19 -115 -23 -157 -7 -64 24 -113 101 -112 174 1 22 3 33 6 24 3 -12 19 -15 82 -14 44 0 77 -3 75 -7 -3 -5 -1 -8 5 -8 5 0 13 5 16 10 7 11 25 4 25 -10 0 -14 -61 -23 -73 -11 -16 16 -110 15 -105 -1 6 -18 97 -39 135 -32 18 4 51 22 74 42 36 32 39 37 22 43 -16 7 -16 8 0 8 9 1 17 8 17 17 0 11 -6 14 -22 9 -23 -7 -23 -7 -3 8 11 8 23 13 27 11 19 -12 6 17 -14 30 l-22 16 21 0 c12 0 29 -7 38 -16z m-616 -26 c12 -31 -14 -43 -73 -34 -35 6 -44 10 -39 23 3 8 0 19 -8 24 -9 6 9 9 49 9 56 0 64 -2 71 -22z m31 -84 c0 -8 3 -13 8 -13 4 1 18 1 32 0 19 -2 12 -6 -25 -18 -63 -19 -135 -20 -135 -1 0 4 16 8 35 8 26 0 39 6 51 25 17 25 34 25 34 -1z m-291 -40 c23 -90 67 -154 121 -176 14 -6 50 -14 80 -18 54 -7 54 -7 -27 -9 -54 -1 -96 4 -120 14 -45 19 -102 90 -120 149 -12 39 -12 42 13 64 14 12 29 22 33 22 5 0 14 -21 20 -46z m408 14 c-3 -7 -5 -2 -5 12 0 14 2 19 5 13 2 -7 2 -19 0 -25z m-27 -41 c0 -87 -82 -152 -183 -145 -64 5 -98 25 -134 78 -13 18 -23 43 -23 56 0 22 2 23 28 12 15 -6 65 -11 112 -12 68 -1 93 3 123 19 59 32 77 30 77 -8z m17 -4 c-4 -3 -7 0 -7 7 0 7 3 10 7 7 3 -4 3 -10 0 -14z m198 -783 c3 -5 4 -10 1 -10 -3 0 -8 5 -11 10 -3 6 -4 10 -1 10 3 0 8 -4 11 -10z m-78 -26 c-3 -3 -12 -4 -19 -1 -8 3 -5 6 6 6 11 1 17 -2 13 -5z m3 -34 c0 -5 -4 -10 -10 -10 -5 0 -10 5 -10 10 0 6 5 10 10 10 6 0 10 -4 10 -10z m-36 -35 l36 -15 -2 -118 c0 -64 5 -143 11 -175 7 -32 11 -60 9 -61 -1 -2 -24 -6 -50 -8 l-48 -6 -1 37 -2 36 -6 -35 c-5 -31 -10 -35 -38 -38 l-33 -3 0 111 c0 69 -6 135 -16 172 -8 33 -14 61 -12 62 54 34 58 36 59 24 0 -7 4 -3 9 10 11 26 34 28 84 7z m-164 -84 c6 -24 9 -45 7 -47 -6 -7 -47 91 -47 113 0 16 1 16 14 -3 8 -11 19 -39 26 -63z m244 63 c14 -35 1 -148 -15 -138 -12 7 -12 154 0 154 5 0 12 -7 15 -16z m106 -28 c0 -2 -9 -6 -20 -9 -11 -3 -20 -1 -20 4 0 5 9 9 20 9 11 0 20 -2 20 -4z m-610 -212 c0 -2 -9 -4 -20 -4 -11 0 -20 4 -20 9 0 5 9 7 20 4 11 -3 20 -7 20 -9z m-33 -61 c-4 -3 -10 -3 -14 0 -3 4 0 7 7 7 7 0 10 -3 7 -7z m323 -423 c0 -5 -10 -10 -22 -9 -22 0 -22 1 -3 9 11 5 21 9 23 9 1 1 2 -3 2 -9z m223 -7 c-7 -2 -21 -2 -30 0 -10 3 -4 5 12 5 17 0 24 -2 18 -5z m-243 -43 c0 -5 -4 -10 -10 -10 -5 0 -10 5 -10 10 0 6 5 10 10 10 6 0 10 -4 10 -10z m328 -89 c3 -8 -1 -12 -9 -9 -7 2 -15 10 -17 17 -3 8 1 12 9 9 7 -2 15 -10 17 -17z m-331 -18 c-4 -3 -10 -3 -14 0 -3 4 0 7 7 7 7 0 10 -3 7 -7z"/> <path d="M855 850 c-3 -5 1 -10 10 -10 9 0 13 5 10 10 -3 6 -8 10 -10 10 -2 0 -7 -4 -10 -10z"/> <path d="M833 775 c0 -27 2 -38 4 -22 2 15 2 37 0 50 -2 12 -4 0 -4 -28z"/> <path d="M800 1760 c0 -7 3 -10 7 -7 3 4 3 10 0 14 -4 3 -7 0 -7 -7z"/> <path d="M828 1515 c-3 -3 -32 -7 -64 -8 -47 -2 -59 -6 -62 -19 -2 -10 3 -18 10 -18 8 0 19 -13 25 -29 17 -47 87 -91 143 -91 81 0 109 16 136 76 17 40 29 54 44 54 11 0 20 6 20 13 0 13 -56 21 -120 17 -14 -1 -34 -2 -45 -3 -11 0 -34 2 -50 6 -17 4 -34 5 -37 2z m188 -64 c-16 -31 -40 -41 -100 -41 -37 0 -116 35 -116 51 0 5 33 10 73 12 39 1 91 4 115 5 l43 2 -15 -29z"/> <path d="M1165 1390 c-10 -11 -16 -22 -13 -25 3 -3 13 4 23 15 10 11 16 22 13 25 -3 3 -13 -4 -23 -15z"/> <path d="M1205 592 c-5 -4 -15 -21 -21 -39 -10 -26 -9 -33 3 -37 22 -9 26 -7 20 8 -3 8 1 17 9 20 8 3 14 17 14 31 0 25 -7 30 -25 17z"/> <path d="M320 522 c0 -22 25 -59 50 -72 15 -8 13 0 -12 40 -34 55 -38 58 -38 32z"/> <path d="M424 516 c-19 -15 -19 -15 1 -15 11 1 31 -3 45 -7 25 -7 25 -7 6 14 -23 26 -26 26 -52 8z"/> </g> </svg> 